PathFileType	4	(X/Y/Z)	D:\TRACE\spot_10-12-23\spot_arm_body_motion_2_1-platform.trc
DataRate	CameraRate	NumFrames	NumMarkers	Units	OrigDataRate	OrigDataStartFrame	OrigNumFrames
100.00	100.00	      30	5	mm	100.00	876	      7000
Frame#	Time	Left_Front			Right_Front			Left_Aft			Right_Aft			Post			
		X1	Y1	Z1	X2	Y2	Z2	X3	Y3	Z3	X4	Y4	Z4	X5	Y5	Z5	

876	8.750	-750.53845	75.75439	-632.56177	817.00110	73.07597	-608.34332	-681.49231	-33.09924	501.03168	725.65399	-42.86841	602.61414	36.61468	831.01971	-870.89386	
877	8.760	-751.34210	75.31213	-632.75354	816.21216	72.79288	-608.45032	-682.31622	-32.98436	500.88034	724.83850	-42.48865	602.41498	35.76859	830.51740	-871.15082	
878	8.770	-752.07788	74.82948	-632.91077	815.45557	72.43127	-608.50800	-683.30157	-32.64944	500.63425	724.05627	-42.17117	602.23297	34.84448	829.84021	-871.49280	
879	8.780	-752.95032	74.58260	-633.16736	814.40088	71.89450	-608.82452	-684.04224	-32.22800	500.57809	723.22858	-41.72557	602.11584	34.18541	829.36249	-871.83997	
880	8.790	-753.99408	74.19892	-633.37567	813.69989	71.42499	-608.97186	-684.81549	-31.91481	500.64215	722.31934	-41.40335	602.07428	33.25193	828.70129	-872.48285	
881	8.800	-754.70575	73.51984	-633.42944	812.77448	70.88195	-609.20514	-685.85059	-31.61284	500.50620	721.44098	-41.02722	602.10754	32.27990	827.90466	-873.24292	
882	8.810	-755.55560	72.89272	-633.56238	811.87512	70.38718	-609.34418	-686.74988	-31.24947	500.30414	720.44458	-40.59072	601.99615	31.49951	827.14673	-874.06287	
883	8.820	-756.61017	72.50002	-633.74841	811.06171	69.90697	-609.37280	-687.64185	-30.67024	500.22824	719.54761	-40.11159	601.83136	30.44705	826.39716	-875.46002	
884	8.830	-757.55731	71.86113	-634.05890	810.11755	69.27344	-609.62164	-688.48999	-30.23380	500.13214	718.65613	-39.55302	601.70752	29.66865	825.61182	-876.64984	
885	8.840	-758.38312	71.23705	-634.22516	809.25519	68.68772	-609.87408	-689.36847	-29.98519	499.92548	717.85077	-39.13345	601.70844	28.70060	824.79156	-877.82672	
886	8.850	-759.27795	70.58204	-634.43024	808.21625	68.11633	-610.14838	-690.47076	-29.50329	499.78967	716.78137	-38.46895	601.58820	27.63430	823.90576	-879.15564	
887	8.860	-760.25464	69.90497	-634.78790	807.29401	67.45919	-610.20667	-691.38904	-28.91190	499.70139	715.90698	-37.99609	601.48639	26.62056	822.99512	-880.51764	
888	8.870	-761.30096	69.47526	-634.95160	806.54266	66.82893	-610.24280	-692.42072	-28.39576	499.48364	714.93329	-37.04641	601.99542	25.76070	822.12256	-881.74640	
889	8.880	-762.22504	68.51623	-635.08746	805.66449	66.11317	-610.39905	-693.41595	-28.05181	499.50961	713.83588	-36.58101	601.60016	24.94383	821.28503	-882.84015	
890	8.890	-763.17523	67.84019	-635.39874	804.64532	65.58962	-610.76001	-694.24701	-27.37714	499.21173	712.89172	-35.98545	601.48645	23.78186	820.23450	-884.03662	
891	8.900	-764.24689	67.14065	-635.86859	803.60712	65.18477	-610.87354	-695.41498	-26.90927	499.07297	711.93732	-35.52007	601.33325	23.08360	818.95886	-884.70160	
892	8.910	-765.15875	66.43552	-636.00879	802.38269	64.00615	-611.58704	-696.16211	-26.33224	498.98016	710.87872	-34.72790	601.09570	21.62972	817.97864	-885.73700	
893	8.920	-766.14252	65.11411	-636.30707	801.31226	62.34446	-611.86267	-697.44830	-25.44115	498.68271	709.98816	-33.76772	600.91876	20.50266	816.71545	-886.55371	
894	8.930	-767.28625	64.10152	-636.59094	800.43939	61.84161	-612.14221	-698.31879	-24.95297	498.75876	708.60327	-32.82560	601.58356	19.79227	815.25232	-887.32233	
895	8.940	-768.26959	63.41441	-636.95929	799.38544	60.98531	-612.52338	-699.39691	-24.32248	498.48285	707.73962	-32.69089	600.16827	19.16738	813.89343	-888.41614	
896	8.950	-769.34326	62.59551	-637.06403	798.27338	60.24152	-612.77240	-700.35205	-23.74510	498.26300	706.78827	-31.97780	599.96356	18.30826	812.74384	-889.70819	
897	8.960	-770.30865	61.89672	-637.53937	797.22308	59.22249	-613.03796	-701.38507	-23.16060	498.10605	705.62079	-31.17064	599.77478	16.80207	811.70959	-891.14697	
898	8.970	-771.55487	61.21653	-637.83594	796.18005	58.47139	-613.27100	-702.59369	-22.45517	497.84503	704.72211	-30.30874	599.70959	15.73409	810.56360	-892.63300	
899	8.980	-772.41113	59.78326	-638.05713	795.05249	57.84383	-613.70239	-703.60553	-21.91730	497.74182	703.60760	-29.49541	599.55859	13.77505	809.36761	-894.33740	
900	8.990	-773.60748	58.74960	-638.30554	793.99304	56.78661	-613.98639	-704.68884	-21.12222	497.48553	702.52765	-28.73439	599.30298	12.56457	807.98798	-896.13910	
901	9.000	-774.78784	57.91159	-638.89685	792.90204	55.38017	-614.31494	-705.86853	-20.41844	497.34146	701.42206	-27.96122	598.70618	12.07330	806.27869	-897.81110	
902	9.010	-775.73016	56.83103	-639.13843	791.90332	54.28197	-614.62897	-707.11243	-19.77868	497.27121	700.33350	-27.07482	598.89667	11.53992	804.39264	-899.31433	
903	9.020	-776.71875	55.64546	-639.33380	790.73987	53.30190	-615.09143	-707.89221	-18.63797	496.85684	699.13281	-25.95762	598.60992	10.43466	803.08337	-901.11743	
904	9.030	-778.16681	54.63471	-639.93744	789.75018	52.28152	-615.34338	-709.12970	-17.93363	496.47382	698.02808	-24.98385	598.35339	9.26522	801.59070	-902.92657	
905	9.040	-779.17114	53.47229	-640.30225	788.38513	51.00673	-615.79913	-710.35382	-17.02928	496.24902	696.88849	-24.17823	598.07825	8.19763	799.88562	-904.51801	
